<svg width="416" height="120" viewBox="0 0 416 120" fill="none" xmlns="http://www.w3.org/2000/svg">
<path d="M180.344 56.8125C180.344 57.125 180.271 57.5104 180.125 57.9688C179.625 59.3229 179.177 60.5 178.781 61.5L162.219 101.719L150.438 75.4062L138.219 101.719L119.719 55.7812H136.844L145.625 79.1875L157.531 53.7812L168.625 79.125L176.438 60.7812C176.708 60.0938 176.938 59.4167 177.125 58.75L177.656 56.8438C177.885 55.9062 178.385 55.4375 179.156 55.4375C179.948 55.4375 180.344 55.8958 180.344 56.8125ZM191.531 94.375C189.469 92.3542 187.823 89.9167 186.594 87.0625C185.385 84.1875 184.781 81.0625 184.781 77.6875C184.781 74.2917 185.354 71.25 186.5 68.5625C187.667 65.8542 189.271 63.5104 191.312 61.5312C195.688 57.3229 201.177 55.2188 207.781 55.2188C214.344 55.2188 219.719 57.2917 223.906 61.4375C228.156 65.6458 230.281 71.1042 230.281 77.8125C230.281 84.5 228.104 90 223.75 94.3125C221.021 96.9792 217.667 98.8229 213.688 99.8438C211.708 100.344 209.406 100.594 206.781 100.594C204.177 100.594 201.5 100.062 198.75 99C196 97.9167 193.594 96.375 191.531 94.375ZM207.75 57.5C206.604 57.5 205.531 57.5833 204.531 57.75V98.0625C205.49 98.2292 206.562 98.3125 207.75 98.3125C213.312 98.3125 218 96.4583 221.812 92.75C225.792 88.8958 227.781 83.9167 227.781 77.8125C227.781 72 225.917 67.1667 222.188 63.3125C218.417 59.4375 213.604 57.5 207.75 57.5ZM242.031 95.5312L242.125 98.6562C242.125 99.1979 241.979 99.6146 241.688 99.9062C241.396 100.198 241.042 100.344 240.625 100.344C240.229 100.344 239.896 100.208 239.625 99.9375C239.354 99.6667 239.219 99.375 239.219 99.0625C239.219 98.7292 239.24 98.4271 239.281 98.1562C239.344 97.8646 239.396 97.5417 239.438 97.1875C239.542 96.5833 239.594 95.0729 239.594 92.6562V53.7812L273.562 80.7188V62.0938C273.562 60.6771 273.521 59.6667 273.438 59.0625C273.333 58.0833 273.281 57.3958 273.281 57C273.281 55.9583 273.729 55.4375 274.625 55.4375C274.979 55.4375 275.312 55.5625 275.625 55.8125C275.958 56.0625 276.125 56.4271 276.125 56.9062V58L276 62.5312V101.719L242.031 75.0625V95.5312ZM287.219 55.7812H300.219C306.281 55.7812 310.729 56.2083 313.562 57.0625C316.792 58.0625 319.281 59.3438 321.031 60.9062C322.802 62.4688 324.188 64.0833 325.188 65.75C327.229 69.1458 328.25 73 328.25 77.3125C328.25 84.1042 325.812 89.6042 320.938 93.8125C317.479 96.8333 313.406 98.6979 308.719 99.4062C306.115 99.8021 302.469 100 297.781 100H287.219V55.7812ZM303.156 97.4062C303.49 97.4271 303.792 97.4375 304.062 97.4375H304.781C310.427 97.4375 315.25 95.6771 319.25 92.1562C323.479 88.4479 325.594 83.5208 325.594 77.375C325.594 73.5 324.667 70.0104 322.812 66.9062C320.125 62.3854 315.875 59.6458 310.062 58.6875C308.167 58.375 305.865 58.1979 303.156 58.1562V97.4062ZM363.938 97.3125C365 97.3125 365.531 97.7292 365.531 98.5625C365.531 98.9375 365.302 99.2708 364.844 99.5625C364.385 99.8542 363.594 100 362.469 100H336V55.7812C344.208 55.7812 352.417 55.7812 360.625 55.7812L363.188 55.6875C364.75 55.6875 365.531 56.1458 365.531 57.0625C365.531 57.4167 365.396 57.75 365.125 58.0625C364.875 58.3542 364.583 58.5 364.25 58.5C363.708 58.5 363.135 58.4375 362.531 58.3125C361.635 58.125 360.406 58.0312 358.844 58.0312H351.938V67.5625H357.625C357.625 67.5625 358.906 67.5104 361.469 67.4062C361.927 67.4062 362.312 67.5208 362.625 67.75C362.958 67.9583 363.125 68.2604 363.125 68.6562C363.125 69.5312 362.542 69.9688 361.375 69.9688L360.031 69.9375C359.344 69.875 358.771 69.8438 358.312 69.8438H351.938V97.7188H358.844C360.385 97.7188 361.479 97.6562 362.125 97.5312C362.896 97.3854 363.5 97.3125 363.938 97.3125ZM394.969 84.8438L397.531 85.0312C401.198 85.0312 404.312 83.75 406.875 81.1875C409.438 78.625 410.719 75.4375 410.719 71.625C410.719 66.625 408.521 62.9167 404.125 60.5C401.708 59.1667 399.125 58.3958 396.375 58.1875C395.208 58.0833 394.125 58.0312 393.125 58.0312H391C390.562 58.0312 390.177 58.0417 389.844 58.0625V100H373.906V55.7812C378.781 55.7812 382.729 55.7812 385.75 55.7812C388.771 55.7812 390.74 55.7917 391.656 55.8125C392.573 55.8333 393.385 55.8646 394.094 55.9062C394.823 55.9271 395.5 55.9583 396.125 56C397.042 56.0833 398.333 56.2812 400 56.5938C401.688 56.9062 403.354 57.5 405 58.375C406.646 59.25 408.062 60.3333 409.25 61.625C411.812 64.375 413.094 67.6458 413.094 71.4375C413.094 75.1875 411.906 78.5 409.531 81.375C407.094 84.3125 403.844 86.2083 399.781 87.0625C401.719 93.0625 404.188 96.6458 407.188 97.8125C408.104 98.1667 409.021 98.3438 409.938 98.3438L412.406 97.75C413.177 97.75 413.562 98.1458 413.562 98.9375C413.562 100.042 412.271 100.594 409.688 100.594C407.812 100.594 406.094 100.073 404.531 99.0312C402.094 97.5729 400.021 94.7396 398.312 90.5312L397.406 88.3125C397.26 87.9583 397.125 87.7396 397 87.6562C396.896 87.5729 396.698 87.5312 396.406 87.5312C396.135 87.5312 395.896 87.5521 395.688 87.5938L394.938 87.625C394.104 87.625 393.531 87.4688 393.219 87.1562C392.927 86.8438 392.781 86.5208 392.781 86.1875C392.781 85.2917 393.51 84.8438 394.969 84.8438Z" fill="black"/>
<path d="M73.4297 4.00452C70.3636 6.83811 67.298 10.0744 64.2328 13.904C54.675 28.3561 50.2392 44.5692 54.8794 63.9028C46.4442 42.2894 51.2911 25.2926 61.7332 10.2403C61.3123 8.27295 60.5683 6.44858 59.4251 4.77116C54.9994 20.0939 38.4809 28.3048 24.8266 39.0705C17.0937 45.7894 12.6837 52.8487 11.4532 60.0363C10.3362 66.5601 11.7649 73.3495 16.0891 80.449C18.6209 72.4076 22.3629 65.4806 26.9463 60.6466L29.1119 58.3629L30.5011 61.1866C38.0655 76.5647 47.175 87.439 57.3164 94.1965C59.7478 89.9576 60.7465 85.6788 61.8476 81.1078L62.4274 78.6991L64.7466 79.5698C69.9525 81.5245 75.0684 83.9058 79.2023 87.8058C83.464 78.7561 85.6631 67.792 84.7765 54.4692L84.5897 51.6619L87.3577 52.17C92.6609 53.1436 98.0002 55.5525 102.769 59.3278C103.526 56.7762 103.612 54.3951 103.114 52.147C102.547 49.583 101.196 47.126 98.9829 44.8003C86.0419 34.7018 70.5759 25.5112 73.429 4.00452H73.4297ZM107.616 52.4597C108.082 55.6964 107.63 59.0859 106.301 62.4886C109.71 65.9238 112.69 70.1557 114.965 75.1565C116.47 65.2683 113.055 58.3144 107.616 52.4597V52.4597ZM89.2437 57.1289C90.1666 84.7833 77.7846 103.204 61.5696 114.833C71.2931 114.444 80.9702 112.238 89.3918 108.129C98.4305 94.2183 101.856 79.9828 94.4864 65.1246C104.138 78.3583 103.389 90.5972 97.8748 103C104.736 97.9019 110.134 91.1332 113.095 82.6282C108.831 68.4368 99.0014 59.9505 89.2434 57.1289H89.2437ZM6.76007 62.6545C5.31233 67.4887 4.79366 72.9792 5.54437 79.3467C6.33116 86.0177 8.93741 91.789 12.8536 96.6272C13.2005 93.0049 13.7775 89.4637 14.5634 86.0651C8.98382 78.2773 6.34616 70.3572 6.76007 62.6548V62.6545ZM28.0952 66.0827C22.0959 73.9437 17.6168 87.0269 16.9404 100.931C22.8105 106.242 30.4779 110.077 38.9477 112.37C30.9274 102.985 24.6755 90.8306 28.7641 76.8923C26.6224 92.3297 37.1412 104.166 47.9969 114.192C49.8921 114.449 51.7961 114.635 53.7051 114.75C58.6816 111.78 63.3787 108.289 67.5469 104.167C52.1461 98.8137 38.6114 86.134 28.0957 66.0827H28.0952ZM65.493 84.604C64.5405 88.4444 63.3841 92.4438 61.0558 96.4765C64.2349 98.2408 67.5054 99.6199 70.8516 100.632C73.1585 97.957 75.2508 95.0449 77.0766 91.8745C74.01 88.6448 69.9787 86.4504 65.4928 84.6042L65.493 84.604Z" fill="#699BF7"/>
</svg>
